<?xml version="1.0" encoding="UTF-8" standalone="no"?>
<svg
   xmlns:dc="http://purl.org/dc/elements/1.1/"
   xmlns:cc="http://creativecommons.org/ns#"
   xmlns:rdf="http://www.w3.org/1999/02/22-rdf-syntax-ns#"
   xmlns:svg="http://www.w3.org/2000/svg"
   xmlns="http://www.w3.org/2000/svg"
   xmlns:sodipodi="http://sodipodi.sourceforge.net/DTD/sodipodi-0.dtd"
   xmlns:inkscape="http://www.inkscape.org/namespaces/inkscape"
   version="1.1"
   id="svg2"
   xml:space="preserve"
   width="3542.6667"
   height="2666.6667"
   viewBox="0 0 3542.6667 2666.6667"
   sodipodi:docname="10131.eps"><metadata
     id="metadata8"><rdf:RDF><cc:Work
         rdf:about=""><dc:format>image/svg+xml</dc:format><dc:type
           rdf:resource="http://purl.org/dc/dcmitype/StillImage" /></cc:Work></rdf:RDF></metadata><defs
     id="defs6" /><sodipodi:namedview
     pagecolor="#ffffff"
     bordercolor="#666666"
     borderopacity="1"
     objecttolerance="10"
     gridtolerance="10"
     guidetolerance="10"
     inkscape:pageopacity="0"
     inkscape:pageshadow="2"
     inkscape:window-width="640"
     inkscape:window-height="480"
     id="namedview4" /><g
     id="g10"
     inkscape:groupmode="layer"
     inkscape:label="ink_ext_XXXXXX"
     transform="matrix(1.3333333,0,0,-1.3333333,0,2666.6667)"><g
       id="g12"
       transform="scale(0.1)"><path
         d="M 0,0 H 26570 V 20000 H 0 Z"
         style="fill:#ffffff;fill-opacity:1;fill-rule:nonzero;stroke:none"
         id="path14" /><path
         d="m 24471.2,1238.6 c -0.1,0 -0.1,0 -0.2,0 l -21057.1,34.7 c 0,0 -1703.05,2548.6 -161.34,4036.8 1541.71,1488.2 483.16,2168.7 295.79,2743.9 -171.02,525 -693.01,1824.2 202.76,2749.6 h 440.93 c 109.28,-153 307.42,-427 324.91,-427 16.37,0 -15.15,258.8 -37.38,427 h 441.98 c 118.47,0 214.52,96.4 214.52,215.3 v 593 c 829.49,517.7 1108.39,1505.9 1183.34,2193.5 145.86,1338 894.6,2528.9 2030.92,3179.3 719.53,411.7 1690.07,749.8 2996.77,887.4 0,0 435.5,60.3 1068.2,60.3 665.6,0 1549.6,-66.7 2375.8,-340.6 -16.7,-36.5 -37.4,-44.9 -76.9,-45.1 -119.8,-0.6 -239.5,-6.2 -371.3,-10.1 -12.4,-163.2 -24.5,-322.4 -36.7,-483.4 30.1,-5.6 47.4,-9.1 64.8,-12 107.1,-17.8 214.1,-36.6 321.6,-52.5 30.5,-4.5 40.6,-18.3 49.9,-46.9 5.1,-15.9 10.4,-31.7 15.8,-47.5 H 9881.45 c -15.66,0 -31.23,-0.4 -46.7,-1.2 -30.93,-1.6 -61.46,-4.7 -91.5,-9.3 -15.03,-2.3 -29.93,-5 -44.69,-8 -384.01,-78.9 -679.66,-401.1 -719.95,-799 -3.09,-30.7 -4.68,-61.7 -4.68,-93.2 V 4746 2182.2 c 0,-394.1 249.53,-729.6 598.69,-856.4 v 0 c 1.53,-0.6 3.12,-1.1 4.65,-1.6 17.32,-6.2 34.91,-11.8 52.7,-16.9 6.4,-1.8 12.78,-3.8 19.25,-5.5 6.78,-1.8 13.64,-3.4 20.48,-5 6.94,-1.7 13.89,-3.3 20.89,-4.8 6.6,-1.5 13.25,-2.8 19.91,-4 7.46,-1.5 14.95,-2.8 22.48,-4.1 6.38,-1 12.78,-2 19.22,-2.9 8.12,-1.2 16.29,-2.2 24.49,-3.2 5.96,-0.7 11.9,-1.4 17.9,-1.9 9.35,-0.9 18.78,-1.6 28.22,-2.2 4.96,-0.3 9.9,-0.7 14.89,-1 14.5,-0.7 29.07,-1.1 43.75,-1.1 h 6730.15 c 31.3,0 62.3,1.6 92.8,4.7 427.1,43.5 766.7,384.3 810.1,812.8 3.1,30.6 4.6,61.7 4.6,93.1 v 7689.1 c 144.2,1.9 289.1,16 436.2,41.5 22,244.5 44,489.1 63.4,704.7 210.4,93.5 407.2,175.8 598.6,269.3 23,11.3 41.6,16.8 58.4,16.8 23.6,0 43.9,-10.8 68.8,-31.9 148.5,-125.2 300.9,-245.7 450.3,-369.9 19.9,-16.5 37.3,-28.7 57,-28.7 12.3,0 25.5,4.8 40.8,16.4 199.6,151.2 383.9,317.2 530.9,522.4 32.8,45.7 25.3,74.5 -6.5,112.7 -128.1,153.6 -253.2,309.7 -381.9,462.7 -31.1,37.1 -38.9,62.7 -17,113 75.8,174.6 144.2,352.6 207.9,532 16.3,45.8 38.5,55.2 78.9,59.2 224.9,22.2 449.6,46 680.2,69.9 41.3,288.8 49.6,572.8 0.5,863.7 -249.5,22.4 -497.3,44.7 -734.4,66.1 -92.4,222.2 -181.9,437.3 -277.7,667.6 58.3,71.7 121.6,149 186.8,229.2 1.4,0.1 2.8,0.2 4.2,0.3 279.3,17 562.5,33.9 838.2,33.9 429,0 839.6,-41.1 1189.1,-187.3 1066.6,-446.5 515.5,-1958.9 1156.3,-2353.3 3157.3,-1943.5 2336.2,-10443 1723.1,-10443 m -4578,8770.6 c -632.1,0 -712.6,-839.1 -1115.3,-1162.9 -123.1,-98.9 -260.7,-179.5 -377.2,-286.3 -430.1,-394.1 -236.3,-1123.7 158.6,-1469.3 184.8,-161.7 440.9,-276.3 691.7,-276.3 121.1,0 240.9,26.7 350.9,87.7 176.3,97.9 310.2,260.6 405.5,438.8 135.4,252.9 222.6,544.7 318.9,814.3 102.4,286.9 188.3,585.6 200.9,891.9 9.6,230.4 -24.2,458 -126.9,672.5 -88.3,184.6 -306.9,289.4 -506.2,289.6 -0.3,0 -0.6,0 -0.9,0 m -2362.5,1460.1 c -3.9,0 -7.7,0 -11.6,0 v 1950.5 647.8 c 3.9,0 7.8,0 11.7,0 328.6,0 657.4,-123.9 910.4,-372.3 511.8,-502.9 519.1,-1325.4 16.3,-1837.3 v 0 c -254.3,-258.9 -590.5,-388.7 -926.8,-388.7 m -1433.5,5425 h -825.1 c -74.7,165.8 -83.3,352.7 -28.5,522.5 306.1,-137 595.7,-308.4 853.6,-522.5"
         style="fill:#f2f9fd;fill-opacity:1;fill-rule:nonzero;stroke:none"
         id="path16" /><path
         d="m 15388.3,16713.7 c -264.4,302 -234,761.2 68,1025.6 v 0 c 302,264.5 761.2,234.1 1025.6,-67.9 264.5,-302 234.1,-761.2 -67.9,-1025.7 v 0 c -302,-264.4 -761.2,-234 -1025.7,68 m -798.8,-416 295.8,-337.8 c 21.9,-8.4 39.8,5 84.4,37.8 79.7,58.6 159.4,117.2 241.1,172.9 12.9,8.8 39.3,9.1 53.9,2 87.2,-42.2 171.8,-89.7 259.4,-131 27.1,-12.8 39,-23.6 39.1,-55.2 0.2,-126.4 3.9,-252.8 6.3,-377.8 109.1,-37.4 392.8,-59.5 490,-37.2 19.3,118.9 40.9,240 57.7,361.9 5.2,37.9 17.2,51.4 56.2,61.3 90.5,23 179.2,54.3 266.7,87.2 35.5,13.3 59.2,17.4 89.1,-12.9 77.6,-78.3 159.8,-152 238.7,-229 21.2,-20.7 39.5,-25.7 62.2,-6.1 106.6,91.9 213.2,184 319.8,275.9 26.2,22.6 5.9,41.4 -6.3,58.7 -61.3,87.7 -122.3,175.8 -186.5,261.4 -24.2,32.1 -24.3,55.1 -3.8,90.3 54.3,93.1 102.6,189.9 157.1,292.5 124.7,2.9 262.3,6.1 403.8,9.3 39,159.9 48,320.3 31.9,487.7 -135.5,22.5 -271.1,45.1 -390.5,64.9 -43.4,121.3 -81,234.6 -125.1,345.2 -12.8,32.1 -8.2,48 13.7,70.4 76.1,77.6 149.7,157.6 225.3,235.7 16.3,16.9 26,30.7 11,54 -76,117.7 -160.9,227.5 -269.2,318.1 -24.2,20.2 -40.5,17.3 -63.1,1.1 -91.1,-65 -183.4,-128.2 -274.2,-193.6 -22,-15.8 -36.6,-19.1 -63.8,-4.8 -94.2,49.7 -190.6,95.3 -288,138.3 -24.9,11 -29.3,23.9 -29.8,46.5 -2.9,126.4 -6.8,252.8 -10.4,382.5 -159.4,35.1 -317.5,51.6 -481.8,36.5 -23,-138.3 -45.9,-275.6 -67.7,-407 -127.9,-42.2 -251.7,-83.1 -384.1,-126.9 -70.4,66.5 -150.9,143.7 -232.7,219.5 -67.1,62.2 -50.2,66.9 -130.3,10.4 -7.6,-5.4 -17.2,-8 -25.9,-11.9 -63.5,-55.6 -126.9,-111.1 -190.4,-166.7 -11.8,-14.9 -21.7,-32.1 -35.9,-44.2 -37,-31.4 -41.9,-59.1 -9.7,-101 67.2,-87.3 128.8,-178.8 190.6,-270.1 8.1,-12 9.5,-35.6 3.4,-48.8 -40,-86.5 -87.6,-169.8 -123,-258 -17.3,-43.2 -38.1,-52.8 -80.3,-53 -119.8,-0.6 -239.5,-6.2 -371.3,-10.1 -12.4,-163.2 -24.5,-322.4 -36.7,-483.4 30.1,-5.6 47.4,-9.1 64.8,-12 107.1,-17.8 214.1,-36.6 321.6,-52.5 30.5,-4.5 40.6,-18.3 49.9,-46.9 31.6,-98.2 69.6,-194.4 102,-292.5 5,-15.2 -1,-41.2 -11.9,-53.3 -59.5,-66.4 -122.7,-129.4 -183.5,-194.5 -49.3,-52.7 -67.4,-72.5 -59.6,-103.8"
         style="fill:#f7cc7f;fill-opacity:1;fill-rule:nonzero;stroke:none"
         id="path18" /><path
         d="m 16603.9,13678.9 c 502.9,511.8 1325.4,519.2 1837.3,16.4 511.8,-502.9 519.1,-1325.4 16.3,-1837.3 v 0 c -502.8,-511.8 -1325.3,-519.2 -1837.2,-16.3 v 0 c -511.9,502.8 -519.2,1325.3 -16.4,1837.2 v 0 m -848.4,1368.1 -562.6,-572.6 c -11.9,-40.2 14.3,-70.2 78.7,-145.3 115.1,-134.2 230.3,-268.5 340.6,-406.6 17.4,-21.7 21.5,-68.8 10.8,-95.8 -63.5,-161.1 -136.8,-318.3 -198.7,-479.9 -19.2,-50 -36.9,-72.7 -93.3,-77 -225.2,-17.4 -450,-41 -672.5,-62.1 -51.9,-199.3 -53.3,-708.1 -0.5,-878.3 214.4,-18.5 433.3,-40.7 652.6,-54.2 68.3,-4.3 94,-23.9 116.9,-92.1 53.1,-158.2 120.8,-312 191.2,-463.6 28.5,-61.4 38.9,-103.2 -11,-160.6 -129.3,-148.7 -249.5,-305.2 -376.3,-456.1 -34.1,-40.6 -40.4,-73.8 -2.6,-111.6 178.2,-177.8 356.6,-355.3 534.8,-533.1 43.8,-43.7 74.5,-4.9 103.7,19 148.1,121.2 297,241.6 440.9,367.6 54,47.3 94.9,50.7 160.4,18.8 173.4,-84.3 352.3,-157.4 542.5,-240.9 21.9,-221.8 46,-466.6 70.8,-718.3 290.2,-48.2 577.3,-42.7 873.4,8.5 22,244.5 44,489.1 63.4,704.7 210.4,93.5 407.2,175.8 598.6,269.3 55.3,27.1 84.4,21 127.2,-15.1 148.5,-125.2 300.9,-245.7 450.3,-369.9 32.3,-26.8 58.2,-42.3 97.8,-12.3 199.6,151.2 383.9,317.2 530.9,522.4 32.8,45.7 25.3,74.5 -6.5,112.7 -128.1,153.6 -253.2,309.7 -381.9,462.7 -31.1,37.1 -38.9,62.7 -17,113 75.8,174.6 144.2,352.6 207.9,532 16.3,45.8 38.5,55.2 78.9,59.2 224.9,22.2 449.6,46 680.2,69.9 41.3,288.8 49.6,572.8 0.5,863.7 -249.5,22.4 -497.3,44.7 -734.4,66.1 -92.4,222.2 -181.9,437.3 -277.7,667.6 109.1,134.3 235.9,288.1 360,444.1 101.9,128 112.5,98.5 1.1,233.7 -10.6,12.8 -16.6,29.6 -24.7,44.5 -107.6,105.7 -215.1,211.4 -322.7,317.1 -28.1,19.1 -60.1,34.3 -83.5,58 -61,61.7 -110.9,66.7 -181.3,3.7 -146.6,-131.3 -301.6,-253.6 -456,-375.8 -20.2,-16 -62.1,-21.8 -86.5,-12.7 -159.5,59.8 -314.3,133.5 -476.3,184.7 -79.2,25 -99.3,60.8 -105.3,136 -17.2,213.4 -43.1,426.1 -67.8,660.5 -292.5,0.2 -577.9,0.4 -866.5,0.6 -5.9,-54.4 -9.9,-85.7 -12.7,-117.1 -17.4,-193.4 -36.5,-386.6 -50.4,-580.3 -4,-55 -27.2,-74.9 -76.9,-95.1 -170.9,-69.7 -337.3,-150.3 -507.7,-221.2 -26.4,-10.9 -73.6,-3.6 -96.7,14.1 -126.2,97.2 -247,201.3 -371.2,301.1 -100.6,80.6 -138.2,110.2 -192.9,92.3"
         style="fill:#f47458;fill-opacity:1;fill-rule:nonzero;stroke:none"
         id="path20" /><path
         d="m 16920.5,16840.1 -2,0.7 c -18.2,6.5 -36.7,12.4 -55.5,17.8 -6.3,1.8 -12.7,3.7 -19.2,5.4 -6.7,1.8 -13.6,3.4 -20.4,5.1 -7,1.6 -13.9,3.3 -20.9,4.8 -6.6,1.4 -13.3,2.7 -19.9,4 -7.5,1.4 -15,2.8 -22.5,4 -6.4,1.1 -12.8,2.1 -19.2,3 -8.1,1.2 -16.3,2.2 -24.5,3.1 -6,0.7 -11.9,1.4 -17.9,2 -9.4,0.9 -18.8,1.6 -28.2,2.2 -5,0.3 -9.9,0.7 -14.9,1 -14.5,0.6 -29.1,1.1 -43.8,1.1 H 9881.45 c -15.66,0 -31.23,-0.4 -46.7,-1.2 -30.93,-1.6 -61.46,-4.7 -91.5,-9.3 -15.03,-2.3 -29.93,-5 -44.69,-8 -384.01,-78.9 -679.66,-401.1 -719.95,-799 -3.09,-30.7 -4.68,-61.7 -4.68,-93.2 V 4746 2182.2 c 0,-394.1 249.53,-729.6 598.69,-856.4 v 0 c 1.53,-0.6 3.12,-1.1 4.65,-1.6 17.32,-6.2 34.91,-11.8 52.7,-16.9 6.4,-1.8 12.78,-3.8 19.25,-5.5 6.78,-1.8 13.64,-3.4 20.48,-5 6.94,-1.7 13.89,-3.3 20.89,-4.8 6.6,-1.5 13.25,-2.8 19.91,-4 7.46,-1.5 14.95,-2.8 22.48,-4.1 6.38,-1 12.78,-2 19.22,-2.9 8.12,-1.2 16.29,-2.2 24.49,-3.2 5.96,-0.7 11.9,-1.4 17.9,-1.9 9.35,-0.9 18.78,-1.6 28.22,-2.2 4.96,-0.3 9.9,-0.7 14.89,-1 14.5,-0.7 29.07,-1.1 43.75,-1.1 h 6730.15 c 31.3,0 62.3,1.6 92.8,4.7 427.1,43.5 766.7,384.3 810.1,812.8 3.1,30.6 4.6,61.7 4.6,93.1 v 11237.6 2563.8 c 0,394.2 -249.5,729.7 -598.6,856.5"
         style="fill:#355389;fill-opacity:1;fill-rule:nonzero;stroke:none"
         id="path22" /><path
         d="M 9413.87,2512.7 H 17079.2 V 15653.2 H 9413.87 Z"
         style="fill:#eafcfc;fill-opacity:1;fill-rule:nonzero;stroke:none"
         id="path24" /><path
         d="m 13260.9,8411.8 c -1519.9,0 -2752,1232.1 -2752,2752.1 0,1519.9 1232.1,2752 2752,2752 1520,0 2752.1,-1232.1 2752.1,-2752 0,-1520 -1232.1,-2752.1 -2752.1,-2752.1 m 0,5175.8 c -1338.5,0 -2423.7,-1085.2 -2423.7,-2423.7 0,-1338.6 1085.2,-2423.8 2423.7,-2423.8 1338.6,0 2423.8,1085.2 2423.8,2423.8 0,1338.5 -1085.2,2423.7 -2423.8,2423.7"
         style="fill:#c7eef1;fill-opacity:1;fill-rule:nonzero;stroke:none"
         id="path26" /><path
         d="m 14810.5,16066.1 h -3115.4 c -45.5,0 -82.4,36.9 -82.4,82.3 0,45.5 36.9,82.4 82.4,82.4 h 3115.4 c 45.4,0 82.3,-36.9 82.3,-82.4 0,-45.4 -36.9,-82.3 -82.3,-82.3"
         style="fill:#6782aa;fill-opacity:1;fill-rule:nonzero;stroke:none"
         id="path28" /><path
         d="m 13260.9,8740.1 c -1338.5,0 -2423.7,1085.2 -2423.7,2423.8 0,1338.5 1085.2,2423.7 2423.7,2423.7 1338.6,0 2423.8,-1085.2 2423.8,-2423.7 0,-1338.6 -1085.2,-2423.8 -2423.8,-2423.8 m 0,4415.4 c -1099.9,0 -1991.6,-891.7 -1991.6,-1991.6 0,-1100 891.7,-1991.7 1991.6,-1991.7 1100,0 1991.7,891.7 1991.7,1991.7 0,1099.9 -891.7,1991.6 -1991.7,1991.6"
         style="fill:#abe2e8;fill-opacity:1;fill-rule:nonzero;stroke:none"
         id="path30" /><path
         d="m 13260.9,9172.2 c -1099.9,0 -1991.6,891.7 -1991.6,1991.7 0,1099.9 891.7,1991.6 1991.6,1991.6 1100,0 1991.7,-891.7 1991.7,-1991.6 0,-1100 -891.7,-1991.7 -1991.7,-1991.7"
         style="fill:#95d9e1;fill-opacity:1;fill-rule:nonzero;stroke:none"
         id="path32" /><path
         d="m 13242.1,1501.8 c -207.9,0 -376.4,169.2 -376.4,377.8 0,208.6 168.5,377.7 376.4,377.7 207.9,0 376.5,-169.1 376.5,-377.7 0,-208.6 -168.6,-377.8 -376.5,-377.8"
         style="fill:#6782aa;fill-opacity:1;fill-rule:nonzero;stroke:none"
         id="path34" /><path
         d="m 9413.87,2512.7 h 7665.33 v 551.301 H 9413.87 Z"
         style="fill:#c7eef1;fill-opacity:1;fill-rule:nonzero;stroke:none"
         id="path36" /><path
         d="m 9413.87,14955.8 h 7665.33 v 697.34 H 9413.87 Z"
         style="fill:#c7eef1;fill-opacity:1;fill-rule:nonzero;stroke:none"
         id="path38" /><path
         d="m 7845.91,8219.8 26.87,-24.1 c 13.83,-12.4 34.64,-11.9 46.48,1.1 l 476.99,526.2 c 11.85,13.1 10.24,33.7 -3.58,46.1 l -26.88,24.2 c -13.82,12.4 -34.63,11.9 -46.47,-1.2 l -477,-526.1 c -11.84,-13.1 -10.23,-33.8 3.59,-46.2"
         style="fill:#13375b;fill-opacity:1;fill-rule:nonzero;stroke:none"
         id="path40" /><path
         d="m 6228.75,8647.3 c 63.75,52 556.8,-165.1 550.55,-240.7 -6.26,-75.5 344.04,-808.1 344.04,-808.1 l 605.34,484.3 0.25,-0.2 c 5.35,17.6 62.74,205.9 65.53,239.6 2.92,35.4 105.21,97.2 152.73,88.1 47.5,-9.1 -40.63,-68.9 -46.42,-79.9 -15.75,-29.8 45.15,-41.1 45.15,-41.1 0,0 174.91,96.4 178.62,153 3.72,56.6 39.83,175.4 77.61,150.5 19.5,-12.8 19.32,-97 13.23,-137 11.23,45.4 27.14,96.6 42.63,101.7 28.3,9.3 42.37,-26.8 37.23,-44.6 -5.14,-17.7 -50.83,-210.3 -64.71,-232 -13.57,-21.2 -296.03,-249.5 -336.72,-299.1 0,0 -782.99,-898.1 -838.74,-921.6 -48.91,-20.6 -223.33,288.9 -388.11,494.3 -164.78,205.5 -637.44,930.2 -438.21,1092.8"
         style="fill:#f7a491;fill-opacity:1;fill-rule:nonzero;stroke:none"
         id="path42" /><path
         d="m 4648.87,2043.2 c 0,0 -107.6,-105.3 -110.04,-144 -2.43,-38.7 -9.52,-452.8 34.4,-491.5 43.92,-38.6 172.94,-66.1 131.46,-109.6 -31.35,-32.8 -272.54,-25.8 -432.38,-17 -46.66,2.6 -105.18,376.2 -123.66,431.1 -26.84,79.7 -92.11,259.3 -67.71,314.9 11.89,27.1 68.77,82.7 148.93,134.7 84.3,54.6 164.96,176.3 164.96,176.3 l 254.04,-294.9"
         style="fill:#f48c7f;fill-opacity:1;fill-rule:nonzero;stroke:none"
         id="path44" /><path
         d="m 5763.44,1797.9 -96.4,-273.6 c -7.16,-43.3 -35.35,-150.1 -35.35,-189.4 0,-147.7 663.73,125.4 514.97,190.8 -13.46,5.9 -55.7,53.2 -60.13,103.5 -6.82,77.4 55.91,174.6 55.91,174.6 l -379,-5.9"
         style="fill:#f7a491;fill-opacity:1;fill-rule:nonzero;stroke:none"
         id="path46" /><path
         d="m 6804.66,6880.2 c 0,0 48.39,-489.3 48.39,-496.6 0,-791.4 156.36,-2337.5 126.62,-2486.3 -72.54,-362.9 -853.31,-2214.4 -853.31,-2214.4 l -421.98,50.6 549.89,2216.8 -202.36,892.2 -286.34,1763.7 1039.09,274"
         style="fill:#355389;fill-opacity:1;fill-rule:nonzero;stroke:none"
         id="path48" /><path
         d="M 5388.43,6447.4 5308.35,5983.7 5091.72,4075.2 4266.7,2209.8 c 0,0 116.05,-271.4 287.26,-309.5 l 1313.08,1915.1 815.66,2450.6 -28.64,544.4 -1265.63,-363"
         style="fill:#13375b;fill-opacity:1;fill-rule:nonzero;stroke:none"
         id="path50" /><path
         d="m 6972.95,8045.2 -585.14,-60 c 0,0 -26.84,481.4 -26.84,711 0,278.5 23.64,637.3 57.16,629.6 94.1,-21.7 220.82,-73.8 296.26,-177.8 261.06,-359.9 258.56,-1102.8 258.56,-1102.8"
         style="fill:#e25a44;fill-opacity:1;fill-rule:nonzero;stroke:none"
         id="path52" /><path
         d="m 6685.49,8745.3 c 12.25,-84.9 237.2,-2393.9 237.2,-2393.9 -1065.43,-516.3 -1653.33,-91.9 -1653.33,-91.9 0,0 34.86,1621.3 -6.92,1842 -27.65,146 -62.12,1116.2 32.18,1143.4 121.01,34.9 259.75,71.9 410.98,87.7 129.09,13.4 630.55,21.2 720.27,-9 0,0 208.08,-221.1 259.62,-578.3"
         style="fill:#f47458;fill-opacity:1;fill-rule:nonzero;stroke:none"
         id="path54" /><path
         d="m 4235.09,2164.4 c 0,0 247.98,-700.6 345.04,-734.4 25.77,-9 149.45,-31.8 172.78,-86.6 7.03,-16.6 0,-71.8 0,-71.8 h -516.87 c 0,0 -65.38,308.7 -91.22,444.3 0,0 -136.82,331.4 -121.62,361.5 15.2,30.1 211.89,87 211.89,87"
         style="fill:#13375b;fill-opacity:1;fill-rule:nonzero;stroke:none"
         id="path56" /><path
         d="m 5593.94,1286.2 76.01,240.9 c 0,0 159.62,-67.8 239.43,-56.5 79.81,11.3 235.64,56.5 235.64,56.5 318.57,-105.2 579.56,-156.3 532.08,-240.9 H 5593.94"
         style="fill:#13375b;fill-opacity:1;fill-rule:nonzero;stroke:none"
         id="path58" /><path
         d="m 7055.07,7060.2 c 2.41,1 11.08,7.8 16.07,11.9 -18.94,226.2 -15.52,445.4 55.23,519.6 -1.7,3.5 -17.17,36.5 -33.32,70.7 -82,-63.7 -120.96,-232.7 -105.67,-507.1 1.06,-18.9 6.46,-33.3 10.81,-56.9 23.75,-26.2 45.34,-43.1 56.88,-38.2"
         style="fill:#f7a491;fill-opacity:1;fill-rule:nonzero;stroke:none"
         id="path60" /><path
         d="m 4214.14,6327 c -0.66,4.9 -0.75,9.9 -0.26,14.9 15.7,159.8 148.01,1502.6 170.29,1559.6 20.12,51.6 613.54,903.2 613.54,903.2 L 5289.38,8406 4718.67,7642.1 c -12.79,-48.5 -218.69,-954.9 -218.69,-954.9 0,0 -42.21,-165.2 -61.11,-264.2 8.62,-23.8 17.08,-46.3 24.58,-64.8 18.91,-39.5 41.22,-71.9 61.49,-99.2 25.51,-34.3 67.68,-109.3 72.88,-129.3 6.05,-23.3 16.94,-71.8 23.11,-101 6.17,-29.3 14.62,-63.3 16.03,-79.2 0.86,-9.7 10.79,-28.9 18.44,-42.6 11.39,-20.2 -8.05,-44.2 -30.05,-36.8 -20.74,6.9 -36.88,33.8 -46.83,50.6 -28.08,47.4 -43.06,133.9 -50.04,129.3 -6.99,-4.6 -31.59,-151.3 -35.48,-167.9 -3.89,-16.6 -33.42,-187 -50.08,-218.1 -16.65,-31.2 -38.7,-26 -44.54,-6.5 -5.04,16.8 18.39,255.2 18.39,255.2 0,0 2.92,30.4 -10.35,20.9 -13.28,-9.5 -34.97,-225.9 -44.21,-257.5 -9.23,-31.7 -30.27,-48.5 -48.13,-23.1 -21.72,31 15.64,260.6 15.64,260.6 0,0 4.18,28.8 -8.11,26.1 -12.28,-2.7 -27.67,-187.1 -37.23,-203.1 -9.57,-15.9 -33.69,-21.6 -45.2,5 -13.55,31.3 21.55,235.9 21.55,235.9 0,0 -1.73,16.3 -9.39,10.9 -7.66,-5.4 -31.98,-161.7 -47.83,-176.2 -13.31,-12.1 -24.4,-0.3 -24.4,-0.3 -29.09,19.9 15.51,168.5 15.06,242.5 -0.43,73.9 33.74,156.9 23.54,245 -0.64,5.5 -2.43,19.1 -3.57,27.6"
         style="fill:#f8a492;fill-opacity:1;fill-rule:nonzero;stroke:none"
         id="path62" /><path
         d="M 4534.1,8265.3 5041,7923.8 c 0,0 285.69,426.6 439.06,578.5 192.11,190.2 -69.99,773 -193.76,740.1 -276.88,-73.8 -752.2,-977.1 -752.2,-977.1"
         style="fill:#f47458;fill-opacity:1;fill-rule:nonzero;stroke:none"
         id="path64" /><path
         d="m 5742.85,9831.7 -75.82,-501.4 c 0,0 276.89,-597 442.19,-545.3 138.7,43.5 53.37,571.8 53.37,571.8 0,0 -75.6,283.7 -52.93,425.6 22.67,142 -366.81,49.3 -366.81,49.3"
         style="fill:#f7a491;fill-opacity:1;fill-rule:nonzero;stroke:none"
         id="path66" /><path
         d="m 6109.66,9782.4 c 22.67,142 -366.81,49.3 -366.81,49.3 l -6.28,-41.5 c 11.39,-27.9 25.32,-51.7 42.23,-69.9 87,-94 222.98,-150.4 340.56,-154.7 -11.77,76.6 -18.99,158.6 -9.7,216.8"
         style="fill:#f47458;fill-opacity:1;fill-rule:nonzero;stroke:none"
         id="path68" /><path
         d="m 5678.95,10541.1 c -11.01,4.1 -88.24,-571.1 58.32,-729.3 146.55,-158.2 432.09,-210 534.51,-85.4 113.29,137.8 107.6,756 -120.26,918.8 -227.85,162.7 -472.57,-104.1 -472.57,-104.1"
         style="fill:#f7a491;fill-opacity:1;fill-rule:nonzero;stroke:none"
         id="path70" /><path
         d="m 6064.79,10952.8 c -176.13,-36 -290.21,-144 -332.12,-190.1 -79.96,-9.4 -188.66,-53.8 -300.9,-240.3 -138.01,-229.2 -36.09,-483.3 124.57,-607.9 160.65,-124.6 158.42,-268.6 158.42,-268.6 l 25.39,74.5 c 18.74,56.4 26.39,116.2 20.12,175.4 -3.76,35.5 -11.33,73.9 -25.98,105.4 -38.64,83.3 83,138.6 117.11,207.8 26.26,53.3 27.53,175.3 68.91,263.4 l 49.41,67.3 c 0,0 114.01,89.1 225.54,63.9 111.54,-25.1 95.49,395.4 -130.47,349.2"
         style="fill:#184655;fill-opacity:1;fill-rule:nonzero;stroke:none"
         id="path72" /><path
         d="m 5843.9,10106.7 c 1.16,-70.2 -30.62,-127.6 -71,-128.3 -40.38,-0.7 -74.05,55.6 -75.21,125.8 -1.17,70.1 30.62,127.6 71,128.3 40.37,0.7 74.04,-55.7 75.21,-125.8"
         style="fill:#f7a491;fill-opacity:1;fill-rule:nonzero;stroke:none"
         id="path74" /><path
         d="m 6081.89,9944.5 220.91,11.5 c 0,0 -0.75,-84.4 -97.75,-92.3 -118.27,-9.6 -123.16,80.8 -123.16,80.8"
         style="fill:#ffffff;fill-opacity:1;fill-rule:nonzero;stroke:none"
         id="path76" /><path
         d="m 20391.9,8007.2 c 0,0 425.5,-933.8 515.7,-1107.4 90.3,-173.7 258.1,-708.7 265.8,-735.1 7.7,-26.5 -214.6,-325.3 -172.6,-340.5 42,-15.3 101.2,150.6 145.4,125 44.2,-25.6 148.8,-452.9 176.2,-435.4 51.3,32.8 -54.1,263.9 -27.2,274.6 26.9,10.8 87.8,-251 139.3,-249.3 51.4,1.7 -80.7,242.8 -65.1,261 15.6,18.2 154.3,-210.5 185.1,-168.6 16.8,22.8 -128.2,200.5 -97.1,212.1 31,11.6 162.6,-107.4 179.4,-79.3 16.8,28.1 -123.5,85.1 -160.7,170.3 -37.2,85.1 -107.7,128.1 -127.6,280.3 -19.9,152.1 -27.8,695.5 -164.1,981.6 -136.4,286.1 -436,919 -436,919 l -356.5,-108.3"
         style="fill:#f7a491;fill-opacity:1;fill-rule:nonzero;stroke:none"
         id="path78" /><path
         d="m 20527.2,9047.1 c 9.6,230.4 -24.2,458 -126.9,672.5 -88.3,184.6 -306.9,289.4 -506.2,289.6 -632.9,0.8 -713.3,-838.9 -1116.2,-1162.9 -123.1,-98.9 -260.7,-179.5 -377.2,-286.3 -430.1,-394.1 -236.3,-1123.7 158.6,-1469.3 274.1,-239.8 704.8,-376 1042.6,-188.6 176.3,97.9 310.2,260.6 405.5,438.8 135.4,252.9 222.6,544.7 318.9,814.3 102.4,286.9 188.3,585.6 200.9,891.9"
         style="fill:#13375b;fill-opacity:1;fill-rule:nonzero;stroke:none"
         id="path80" /><path
         d="m 18265.7,9943.8 c 29.2,21.2 103.1,-129.6 138.7,-128.1 35.5,1.5 -24.6,211 2.2,227.2 49.3,29.8 79.9,-225.5 103.4,-213.2 23.6,12.3 5,277 55.8,263.1 50.9,-14 -9.3,-276.6 21.8,-274.6 31.2,1.9 34.1,249.2 99,264.3 34.8,8 -58.6,-422.1 -27.2,-459.3 31.4,-37.2 164.9,99.6 198.9,72.7 33.9,-26.9 -261.5,-227.9 -266.1,-254.9 -4.6,-26.9 -65.7,-604.3 -57.7,-795.2 65.8,-3.7 438.3,-77.5 500.2,-79.6 -41,-120.8 59.7,-245.5 26,-367.6 -208.8,18.5 -829.8,65.8 -868.8,110.6 -118.6,136.5 98.8,979.5 148.9,1127.3 50.1,148 1.1,209.3 3.7,300 2.7,90.6 -108,186.1 -78.8,207.3"
         style="fill:#f7a491;fill-opacity:1;fill-rule:nonzero;stroke:none"
         id="path82" /><path
         d="m 19233.5,1321.3 c 52.6,38.8 95.1,64.4 263.2,145.9 10.9,5.3 50.8,30.8 65.2,39.6 36.5,22.3 73.2,57.5 104.7,92.7 30.2,33.6 44.5,141.3 51.3,227.2 -17.3,191.8 -295.2,3268.2 -353.9,3601.3 -60.5,343.7 31.7,868.1 31.7,868.1 l 214.6,80.9 407.3,-1411.8 -32.1,-1074.7 c 0,0 95.8,-309.8 107.9,-494.9 12.1,-185.1 -138.5,-1687.7 -138.5,-1687.7 v 0 c 0,-53.7 2.1,-102.3 8.1,-132.6 11,-56.2 72.6,-171.9 44.3,-224.8 -28.2,-52.9 -60.5,-66.1 -60.5,-66.1 l -731.9,-11.9 c -39.9,-0.6 -13.5,25.1 18.6,48.8"
         style="fill:#f48c7f;fill-opacity:1;fill-rule:nonzero;stroke:none"
         id="path84" /><path
         d="m 20344.4,6406.4 c 0,0 254.2,-383.5 314.7,-700.8 60.5,-317.3 -44.5,-1292.5 72,-1708.4 63,-225.1 301.8,-572.7 338.1,-863.6 36.3,-290.9 162.7,-1130.4 162.7,-1130.4 v 0 c 19.1,-88.2 49,-197.2 87.9,-247.9 23.8,-31 67.2,-70.2 95.8,-126.3 44.4,-87.3 19.8,-217.2 -12.9,-288.7 -16.8,-36.8 1.1,-36.7 -37.1,-48.5 -113.4,-35.1 -234,24 -282.3,132.8 -26.9,60.8 -50.6,141.9 -55.3,244.1 -5.1,108.3 -22,194.3 -40.1,258 l -812.4,1992.9 -588.2,1720 -150.7,885.8 907.8,-119"
         style="fill:#f79c8d;fill-opacity:1;fill-rule:nonzero;stroke:none"
         id="path86" /><path
         d="m 21061.3,1481.8 c 175.9,-32.1 292.9,71 353.8,148.2 44.7,-87.5 66.5,-217.9 33.6,-289.7 -29,-63.3 -113.6,-61.5 -180.2,-64 -70.4,-2.6 -124.9,36.6 -159.9,98.1 -16.3,28.7 -33.2,64.5 -47.3,107.4"
         style="fill:#13375b;fill-opacity:1;fill-rule:nonzero;stroke:none"
         id="path88" /><path
         d="m 19562,1506.8 c 193.6,-49.7 336.7,-15.9 416.8,16.4 20.6,-58.6 48,-132.2 33.4,-174.6 -17.7,-51.9 -43,-63.7 -65.4,-64.2 -176.8,-4.7 -647.6,-11 -782.5,-12.8 -18.8,-0.2 -29.2,21.8 -17.1,36.3 33.5,40 400.4,190.1 414.8,198.9"
         style="fill:#13375b;fill-opacity:1;fill-rule:nonzero;stroke:none"
         id="path90" /><path
         d="m 20179.6,3957.2 c -15.2,-1 -30.5,-2 -45.9,-3 l -2.4,-0.1 c -15,-0.9 -30.2,-1.8 -45.4,-2.5 -0.9,-0.1 -1.8,-0.1 -2.8,-0.2 -15.2,-0.8 -30.4,-1.5 -45.7,-2.2 h -2.4 c -15.5,-0.7 -31.1,-1.3 -46.7,-1.8 -173.5,-5.7 -387.8,-3.5 -525.3,19.9 -70.1,701.7 -96.2,1342.2 -122.2,1483.9 -62.9,343.8 54.9,886.4 54.9,886.4 l -9.5,128.9 30.2,82.2 943.9,-119.1 c 0,0 264.3,-383.4 327.3,-700.7 62.9,-317.3 -46.2,-1292.6 74.8,-1708.4 0,0 -269.5,-42 -582.8,-63.3"
         style="fill:#13375b;fill-opacity:1;fill-rule:nonzero;stroke:none"
         id="path92" /><path
         d="m 18894,8618.7 c 0,0 706.8,73.9 915.3,4.2 208.6,-69.8 355.1,-367.8 243.8,-534.6 -111.4,-166.7 -1114.4,51.7 -1114.4,51.7 l -44.7,478.7"
         style="fill:#eab054;fill-opacity:1;fill-rule:nonzero;stroke:none"
         id="path94" /><path
         d="m 20140.5,8684.4 c 0,0 349.6,21.7 488,-124.8 138.3,-146.5 -306.9,-1305.4 -332,-1491.8 -25.2,-186.4 128.2,-682.2 128.2,-682.2 0,0 -821.3,-160.6 -1056,-9.6 0,0 -43.1,1353.6 -17.9,1486.8 25.1,133.2 252.6,661.8 302.9,715.1 50.3,53.3 486.8,106.5 486.8,106.5"
         style="fill:#f7cc7f;fill-opacity:1;fill-rule:nonzero;stroke:none"
         id="path96" /><path
         d="m 20024.2,9138.4 c 0,0 1.8,-10 5,-27.1 15.6,-81.6 75.6,-352.6 116.2,-427.1 49,-90 -167.8,-377.1 -376.4,-342 -62.1,10.4 52.5,263.8 47,290.6 -10.6,51.4 -24.9,121.4 -39.5,193.3 -8.3,40.5 -16.6,81.7 -24.5,120.3 -22.3,109.8 -40.5,199.6 -40.5,199.6 l 312.7,-7.6"
         style="fill:#f7a491;fill-opacity:1;fill-rule:nonzero;stroke:none"
         id="path98" /><path
         d="m 20029.5,9109.8 c -0.1,0.5 -0.2,1 -0.3,1.5 0.1,-0.5 0.2,-1 0.3,-1.5"
         style="fill:#845659;fill-opacity:1;fill-rule:nonzero;stroke:none"
         id="path100" /><path
         d="m 19776.4,8826.8 c -8.2,40.3 -16.6,81.2 -24.4,119.6 v 0 c -22.3,109.8 -40.5,199.6 -40.5,199.6 l 312.7,-7.6 c 0,0 1.8,-10 5,-27.1 v 0 c 0.1,-0.5 0.2,-1 0.3,-1.5 2.4,-12.4 5.5,-28.4 9.2,-46.9 -21.8,-60.1 -57.9,-116.5 -113.1,-163.4 -50.5,-43 -101,-65.8 -149.2,-72.7"
         style="fill:#f58c74;fill-opacity:1;fill-rule:nonzero;stroke:none"
         id="path102" /><path
         d="m 19813.7,9829 c 0,0 147.4,16.5 239.8,-99.6 92.3,-116.1 191.9,-475.1 -37.6,-670.3 -229.4,-195.2 -456.1,25.8 -489.8,260 -33.6,234.3 -46.6,518.3 287.6,509.9"
         style="fill:#f7a491;fill-opacity:1;fill-rule:nonzero;stroke:none"
         id="path104" /><path
         d="m 19458.3,9322.6 c 27.3,-51.8 73.3,-80.4 102.6,-64 29.4,16.4 30.9,71.6 3.5,123.4 -27.3,51.7 -73.3,80.4 -102.6,64 -29.4,-16.4 -30.9,-71.7 -3.5,-123.4"
         style="fill:#f7a491;fill-opacity:1;fill-rule:nonzero;stroke:none"
         id="path106" /><path
         d="m 19797.2,9867.3 c 0,0 196.9,-341.4 337.8,-357.1 140.8,-15.8 159.3,-197.2 159.3,-197.2 0,0 -50.4,418 -189.8,498.6 -139.4,80.6 -307.3,55.7 -307.3,55.7"
         style="fill:#13375b;fill-opacity:1;fill-rule:nonzero;stroke:none"
         id="path108" /><path
         d="m 20098,9424.4 c -11.4,-60.7 11.6,-116.3 51.5,-124.2 39.9,-8 81.5,34.7 92.9,95.3 11.5,60.7 -11.6,116.3 -51.4,124.2 -39.9,8 -81.5,-34.7 -93,-95.3"
         style="fill:#f7a491;fill-opacity:1;fill-rule:nonzero;stroke:none"
         id="path110" /><path
         d="m 19904.6,9266.6 -201.2,-28.9 c 0,0 15.6,-75.7 104.4,-65.6 108.3,12.4 96.8,94.5 96.8,94.5"
         style="fill:#ffffff;fill-opacity:1;fill-rule:nonzero;stroke:none"
         id="path112" /><path
         d="m 20613.3,7346.8 c 0,0 -394.9,590.8 -430.3,807.8 -35.5,217 159.8,485.6 359.2,464.8 199.4,-20.8 540.3,-1009.2 540.3,-1009.2 l -469.2,-263.4"
         style="fill:#f7cc7f;fill-opacity:1;fill-rule:nonzero;stroke:none"
         id="path114" /><path
         d="m 12819.2,11399 c 76.9,0 148.5,0 220,0 11.8,0 25,-3.3 34.9,1 12.7,5.6 22.7,17.3 33.9,26.3 -11.4,8.8 -22.6,24.6 -34.4,25.1 -65.9,2.5 -132,1.3 -198,1.3 -17.3,0 -34.5,0 -54.1,0 0,49.2 0,93.8 0,144.2 76.3,0 150.6,-0.6 225,0.4 23.1,0.3 58.7,-9.6 59.6,26 0.9,37.5 -35.2,26.4 -58,26.7 -74.5,1.1 -149.1,0.4 -226.3,0.4 0,49.3 0,94.1 0,145.5 74.2,0 148.5,-0.8 222.7,0.5 23.9,0.4 63,-12.3 61.8,27.3 -1.1,38.1 -39.8,24.9 -63.9,25.4 -72.9,1.3 -145.8,0.5 -220.8,0.5 0,49.7 0,94.4 0,144.8 72.5,0 142.5,0 212.5,0 13.2,0 27.6,-2.9 39.2,1.5 13,4.9 23.3,16.6 34.8,25.3 -11.4,8.8 -22.5,24.8 -34.3,25.3 -63,2.7 -126.1,1.5 -189.2,1.7 -15.9,0 -31.8,0 -47.8,0 10.6,167.7 201.9,328.3 401.8,341.1 207,13.4 410,-138.2 448.6,-341.1 -66.3,0 -131.5,0 -196.7,-0.1 -16.1,0 -33.2,2.6 -48,-1.9 -11.5,-3.6 -20.1,-16.5 -30,-25.3 10.2,-8.6 19.7,-23.5 30.6,-24.6 34.9,-3.4 70.3,-1.8 105.5,-1.9 48.3,-0.1 96.6,0 148.9,0 0,-48.6 0,-94.3 0,-144.8 -69.3,0 -137.9,0 -206.5,0 -11.7,0 -24.6,3.1 -34.9,-0.8 -15.6,-5.9 -29.3,-16.7 -43.8,-25.5 14.1,-9.1 27.9,-25.5 42.3,-26.1 65.9,-2.8 132,-1.3 198,-1.3 14.4,0 28.8,0 46.1,0 0,-48.6 0,-93.3 0,-145.5 -69.5,0 -139.3,0 -209,0 -14.7,0 -30.6,3.6 -43.7,-1 -12.6,-4.5 -22.2,-17.5 -33.1,-26.7 10.4,-8.3 20.2,-22.7 31.2,-23.8 34.9,-3.3 70.3,-1.8 105.5,-1.9 48.3,-0.1 96.7,0 148.5,0 0,-47.5 0,-92.3 0,-144.3 -60.8,0 -123.2,0 -185.6,0 -22,0 -44.7,3 -65.8,-1.4 -12.6,-2.5 -22.8,-16.7 -34,-25.6 11.4,-8.8 22.5,-24.9 34.2,-25.3 67.4,-2.5 134.9,-1.3 202.4,-1.4 15.9,0 31.7,0 51.8,0 0,-111 1.8,-217.7 -0.6,-324.3 -1.8,-78.7 1.6,-159.8 -16.1,-235.5 -38.5,-164.4 -146.5,-272.5 -309.4,-316.5 -161.1,-43.7 -306,-4 -425.4,113 -86.4,84.7 -130.6,189.6 -130.4,311.9 0.2,148.2 0,296.3 0,451.4"
         style="fill:#eafcfc;fill-opacity:1;fill-rule:nonzero;stroke:none"
         id="path116" /><path
         d="m 13006.6,10203.1 c 50.6,-17.5 103.6,-28.2 155.3,-42 0,-184.4 0,-547.7 0,-729.9 h 196.2 c 0,183.2 0,547 0,733.1 24.5,4.8 44.9,7.8 64.8,12.8 309.8,78.2 510.9,268.3 594.2,578.9 41,152.9 20.9,309.4 23.9,464.3 1.2,61.8 -37.8,101.3 -91.8,101.5 -55.1,0.1 -90.9,-37.4 -92.1,-100.4 -1.3,-66 -0.9,-132 0.7,-197.9 3.9,-160.7 -23.1,-311.6 -124.5,-443.6 -148.7,-193.7 -403.8,-279.7 -636.6,-211.3 -239.7,70.4 -412.2,279.2 -428,524.8 -6.4,99.4 -2.6,199.4 -4.5,299.2 -0.5,24.6 -0.6,50.7 -8.3,73.5 -13.6,40.3 -56.3,61.3 -99.6,54.7 -43.5,-6.6 -75.8,-43.2 -76.6,-93.7 -1.6,-96.8 -1.4,-193.7 -0.4,-290.5 3.5,-333.3 212.6,-624.9 527.3,-733.5"
         style="fill:#eafcfc;fill-opacity:1;fill-rule:nonzero;stroke:none"
         id="path118" /><path
         d="m 18317.7,16315.2 c -23.2,206.9 125.8,393.4 332.7,416.6 206.9,23.2 393.4,-125.7 416.6,-332.6 v 0 c 23.2,-206.9 -125.7,-393.5 -332.6,-416.7 -206.9,-23.2 -393.5,125.7 -416.7,332.7 z m -463.3,59.4 25.9,-231.5 c 6.9,-10.1 18.5,-9.7 47.1,-8.9 51.3,1.4 102.6,2.7 153.9,2.3 8.1,-0.1 19.4,-7.8 23.6,-15.2 24.6,-43.7 46.6,-89 71.6,-132.5 7.8,-13.5 9.7,-21.7 0.3,-35.1 -37.3,-53.9 -73.1,-108.9 -109.1,-162.8 35.4,-48.2 149.7,-141.6 197.6,-160.9 43.5,44.9 88.5,90.1 131.7,137 13.5,14.6 22.6,16.8 42.1,9.5 45.4,-17.1 92.4,-30 139.4,-41.9 19.1,-4.8 30.4,-10.1 34.2,-31.8 9.8,-56.4 23,-112.1 33.8,-168.3 2.9,-15.1 9.2,-22.6 24.7,-21 72.6,7.6 145.2,15.3 217.9,22.9 17.8,1.8 14.7,15.8 14.7,26.8 -0.2,55.5 -0.1,111.1 -2.1,166.5 -0.7,20.9 6,30.7 25.1,39.6 50.8,23.6 100,50.5 153.6,78.1 53.9,-35.7 113.5,-75.1 174.7,-115.6 64,56.5 115.3,122.2 158,198.2 -51.1,49.7 -102.1,99.4 -147.1,143.3 17.5,64.5 34.9,123.9 48.9,184 4.1,17.5 10.8,22.9 26.7,25.9 55.4,10.6 110.4,22.8 165.7,33.7 12,2.4 20.2,5.4 20.7,19.8 2.5,72.6 -1.1,144.5 -20.4,215.1 -4.3,15.8 -12.2,19.4 -26.6,19.2 -58,-0.7 -116,-0.3 -174.1,-1.3 -14,-0.2 -21.2,2.7 -28.5,16.9 -25.5,49 -53,97 -81.7,144.2 -7.4,12 -5.4,18.8 1.1,28.6 36.1,54.7 71.9,109.6 108.8,165.9 -57.5,62.2 -119.9,116 -194.4,158.2 -50.7,-52 -101.1,-103.7 -149.4,-153.2 -66.9,19.8 -131.7,39.1 -201.1,59.7 -10.3,49.1 -21.7,105.8 -34.1,162.3 -10.1,46.4 -1.6,43.4 -52.4,43 -4.8,0 -9.7,1.7 -14.5,2.6 -43.5,-4.8 -87,-9.7 -130.5,-14.6 -9.4,-2.8 -18.7,-7.2 -28.4,-8.2 -25,-2.4 -35.3,-12.7 -34,-40.1 2.7,-57.1 1.9,-114.3 1.2,-171.5 -0.1,-7.5 -6.5,-17.9 -13,-21.8 -42.7,-24.9 -87.6,-46.3 -128.8,-73.4 -20.1,-13.3 -31.9,-11.2 -49.9,1.2 -51.2,35.2 -103.8,68.3 -161.1,105.6 -53.6,-65.8 -105.9,-130 -158.8,-194.9 11.2,-11.3 17.5,-17.9 24.1,-24.3 40.3,-39.3 80.3,-79 121.4,-117.6 11.7,-11 11.9,-19.8 7.3,-34.7 -15.6,-51.3 -27.9,-103.5 -43.1,-154.8 -2.4,-8 -12.7,-17.3 -20.9,-19.2 -45,-10.6 -90.5,-18.8 -135.7,-28.5 -36.6,-7.9 -50.1,-10.9 -56.1,-26.5"
         style="fill:#96d9c9;fill-opacity:1;fill-rule:nonzero;stroke:none"
         id="path120" /><path
         d="m 6819.6,17461.9 89.53,-560.4 299.33,394 992.99,948.9 -881.65,-353.9 c 0,0 -428.25,-250.1 -446.47,-280.2 -18.24,-30.1 -53.73,-148.4 -53.73,-148.4"
         style="fill:#50bfa5;fill-opacity:1;fill-rule:nonzero;stroke:none"
         id="path122" /><path
         d="m 6320.96,17667.5 1880.49,576.9 -1381.85,-782.5 z"
         style="fill:#96d9c9;fill-opacity:1;fill-rule:nonzero;stroke:none"
         id="path124" /><path
         d="m 7587.47,17100.7 -612.33,249.1 1226.31,894.6 z"
         style="fill:#96d9c9;fill-opacity:1;fill-rule:nonzero;stroke:none"
         id="path126" /><path
         d="m 5960.58,16614.2 c 41.18,93.2 96.03,179.8 163,257.5 l 35.09,-30.2 c -64,-74.3 -116.38,-157 -155.73,-246 z M 5470.7,16287 c 44.78,29.8 126.83,82.2 173.35,98.5 36.12,12.7 69.59,23.1 102.31,31.8 l 11.9,-44.7 c -31.54,-8.4 -63.88,-18.5 -98.86,-30.8 -30.5,-10.7 -89.93,-44.7 -163.05,-93.4 z m 580.57,108 -6.44,1 6.87,45.8 6.99,-1.1 c 104.82,-17 202.39,-68.1 267.74,-140.1 l -34.33,-31.2 c -58.41,64.5 -146.19,110.3 -240.83,125.6 z m -145.64,-289.7 c -12.83,42.5 -20.51,88 -22.8,135.1 -1.23,25.4 -0.92,51.6 0.91,78.1 l 46.21,-3.2 c -1.7,-24.6 -2,-49.1 -0.85,-72.6 2.11,-43.4 9.13,-85.1 20.88,-124 8.33,-27.7 19.6,-54.7 33.51,-80.3 l -40.72,-22.1 c -15.41,28.4 -27.9,58.3 -37.14,89 z m -850.73,-253.6 c 53.73,82.8 114.3,164.3 180.06,242.2 l 35.4,-29.8 c -64.52,-76.5 -123.92,-156.4 -176.59,-237.6 z m 1131.43,-39.7 c -3.06,0.9 -6.12,1.8 -9.16,2.7 l 13.61,44.3 c 2.66,-0.9 5.32,-1.6 7.55,-2.3 0.01,0 1.43,-0.2 4.89,0 25.85,1.2 89.4,20.2 118.68,52.1 24.61,26.8 40.59,61.4 47.48,102.9 l 45.69,-7.6 c -8.26,-49.8 -28.68,-93.5 -59.05,-126.6 -40.61,-44.2 -118.1,-65.5 -150.55,-67.1 -7.67,-0.4 -13.95,0.1 -19.14,1.6 z m -1380.91,-509.1 c 24.97,94.3 59.69,190 103.22,284.5 l 42.06,-19.4 c -42.4,-92.1 -76.22,-185.3 -100.5,-276.9 z m -33.58,-563.4 c -7.12,44.6 -11.86,90.4 -14.08,136.1 -2.05,42.1 -2,85.1 0.13,127.8 l 46.27,-2.3 c -2.07,-41.2 -2.1,-82.7 -0.13,-123.2 2.14,-44 6.7,-88.1 13.56,-131.1 2,-12.6 4.22,-25.2 6.63,-37.7 l -45.49,-8.7 c -2.54,13.2 -4.86,26.4 -6.89,39.1"
         style="fill:#9bc1f9;fill-opacity:1;fill-rule:nonzero;stroke:none"
         id="path128" /><path
         d="m 6379.28,17031.2 c 42.85,26.8 87.33,49.8 132.23,68.3 l -17.67,42.8 c -47.28,-19.5 -94.08,-43.6 -139.11,-71.8 l 24.55,-39.3"
         style="fill:#9bc1f9;fill-opacity:1;fill-rule:nonzero;stroke:none"
         id="path130" /><path
         d="m 15159.9,4137.9 h -3840.3 c -248.4,0 -449.8,201.4 -449.8,449.8 0,248.4 201.4,449.8 449.8,449.8 h 3840.3 c 248.4,0 449.8,-201.4 449.8,-449.8 0,-248.4 -201.4,-449.8 -449.8,-449.8"
         style="fill:#c7eef1;fill-opacity:1;fill-rule:nonzero;stroke:none"
         id="path132" /><path
         d="m 10186.5,6353 h 153.5 v 789.102 h -153.5 z"
         style="fill:#93d8e0;fill-opacity:1;fill-rule:nonzero;stroke:none"
         id="path134" /><path
         d="m 10463,6451.7 h 153.5 v 591.801 H 10463 Z"
         style="fill:#93d8e0;fill-opacity:1;fill-rule:nonzero;stroke:none"
         id="path136" /><path
         d="m 10739.5,6353 h 153.5 v 789.102 h -153.5 z"
         style="fill:#93d8e0;fill-opacity:1;fill-rule:nonzero;stroke:none"
         id="path138" /><path
         d="m 11016,6013.9 h 153.5 V 7505.5 H 11016 Z"
         style="fill:#93d8e0;fill-opacity:1;fill-rule:nonzero;stroke:none"
         id="path140" /><path
         d="m 11292.5,6202.5 h 153.5 v 1090.1 h -153.5 z"
         style="fill:#93d8e0;fill-opacity:1;fill-rule:nonzero;stroke:none"
         id="path142" /><path
         d="m 13791.4,6013.9 h 153.5 v 1491.6 h -153.5 z"
         style="fill:#93d8e0;fill-opacity:1;fill-rule:nonzero;stroke:none"
         id="path144" /><path
         d="m 14067.9,6280.4 h 153.5 v 934.398 h -153.5 z"
         style="fill:#93d8e0;fill-opacity:1;fill-rule:nonzero;stroke:none"
         id="path146" /><path
         d="m 14325.2,6529.5 h 153.5 v 436.102 h -153.5 z"
         style="fill:#93d8e0;fill-opacity:1;fill-rule:nonzero;stroke:none"
         id="path148" /><path
         d="m 14574.2,6399.8 h 153.5 v 695.602 h -153.5 z"
         style="fill:#93d8e0;fill-opacity:1;fill-rule:nonzero;stroke:none"
         id="path150" /><path
         d="m 14828.7,6033.1 h 153.5 V 7462 h -153.5 z"
         style="fill:#93d8e0;fill-opacity:1;fill-rule:nonzero;stroke:none"
         id="path152" /><path
         d="m 15091,6451.7 h 153.5 v 591.801 H 15091 Z"
         style="fill:#93d8e0;fill-opacity:1;fill-rule:nonzero;stroke:none"
         id="path154" /><path
         d="m 15362.8,6280.4 h 153.5 v 934.398 h -153.5 z"
         style="fill:#93d8e0;fill-opacity:1;fill-rule:nonzero;stroke:none"
         id="path156" /><path
         d="m 15615.8,5989.7 h 153.398 V 7505.5 H 15615.8 Z"
         style="fill:#93d8e0;fill-opacity:1;fill-rule:nonzero;stroke:none"
         id="path158" /><path
         d="m 15864.4,6327.1 h 153.504 v 887.699 H 15864.4 Z"
         style="fill:#93d8e0;fill-opacity:1;fill-rule:nonzero;stroke:none"
         id="path160" /><path
         d="m 16123.9,6544 h 153.5 v 453.902 h -153.5 z"
         style="fill:#93d8e0;fill-opacity:1;fill-rule:nonzero;stroke:none"
         id="path162" /><path
         d="m 16374.8,6636.8 h 153.398 v 268.301 H 16374.8 Z"
         style="fill:#93d8e0;fill-opacity:1;fill-rule:nonzero;stroke:none"
         id="path164" /><path
         d="m 9922.24,6576.3 h 153.457 v 389.301 H 9922.24 Z"
         style="fill:#93d8e0;fill-opacity:1;fill-rule:nonzero;stroke:none"
         id="path166" /><path
         d="m 12659.2,6013.9 h 153.5 v 1491.6 h -153.5 z"
         style="fill:#93d8e0;fill-opacity:1;fill-rule:nonzero;stroke:none"
         id="path168" /><path
         d="m 12935.7,6202.5 h 153.5 v 1090.1 h -153.5 z"
         style="fill:#93d8e0;fill-opacity:1;fill-rule:nonzero;stroke:none"
         id="path170" /><path
         d="m 11569,6451.7 h 153.5 v 591.801 H 11569 Z"
         style="fill:#93d8e0;fill-opacity:1;fill-rule:nonzero;stroke:none"
         id="path172" /><path
         d="m 11845.5,6529.5 h 153.5 v 436.102 h -153.5 z"
         style="fill:#93d8e0;fill-opacity:1;fill-rule:nonzero;stroke:none"
         id="path174" /><path
         d="m 13234.8,6451.7 h 153.5 v 591.801 h -153.5 z"
         style="fill:#93d8e0;fill-opacity:1;fill-rule:nonzero;stroke:none"
         id="path176" /><path
         d="m 13511.3,6280.4 h 153.5 v 934.398 h -153.5 z"
         style="fill:#93d8e0;fill-opacity:1;fill-rule:nonzero;stroke:none"
         id="path178" /><path
         d="m 12122,6399.8 h 153.5 v 695.602 H 12122 Z"
         style="fill:#93d8e0;fill-opacity:1;fill-rule:nonzero;stroke:none"
         id="path180" /><path
         d="m 12398.5,6280.4 h 153.5 v 934.398 h -153.5 z"
         style="fill:#93d8e0;fill-opacity:1;fill-rule:nonzero;stroke:none"
         id="path182" /><path
         d="m 22339,10581.3 -1254.5,-444.1 c -60.8,-21.5 -127.5,10.3 -149.1,71.2 l -284.3,803 c -21.5,60.8 10.4,127.6 71.2,149.1 l 1254.4,444.1 c 60.9,21.5 127.6,-10.3 149.2,-71.2 l 284.2,-803 c 21.6,-60.8 -10.3,-127.6 -71.1,-149.1"
         style="fill:#50bfa5;fill-opacity:1;fill-rule:nonzero;stroke:none"
         id="path184" /><path
         d="m 20836.7,10630.9 -276.6,-606 504.4,297.2 z"
         style="fill:#50bfa5;fill-opacity:1;fill-rule:nonzero;stroke:none"
         id="path186" /><path
         d="m 21209.5,10837.3 131.1,50.2 c 0,0 121.4,184.5 110.5,230.2 -10.8,45.8 -71.7,128.8 -50.2,149.8 21.6,21 72.9,50 128.5,4.4 40.3,-33.1 75.3,-194.7 94.6,-199.3 12,-3 88.2,23.8 143.5,44.2 36.4,13.4 77.2,5.5 106,-20.5 l 0.1,-0.1 c 19.4,-17.6 23.9,-46.4 10.7,-69 l -20.5,-35.3 34.3,-22.4 c 25.6,-16.7 32.9,-50.8 16.4,-76.5 l -16.8,-26.1 22.4,-12.4 c 29,-15.9 37.7,-53.5 18.7,-80.5 l -15.4,-22 5.2,-4.6 c 21.5,-19.1 24.9,-51.4 7.7,-74.5 l -15.8,-21.3 -349.2,-133.7 c -32.7,-12.5 -67.7,-18.2 -102.7,-16.7 l -130.6,-26.7 c -14,-2.9 -28.1,4.9 -33,18.4 l -112.3,307.4 c -5.4,14.9 2.1,31.3 16.8,37"
         style="fill:#ffffff;fill-opacity:1;fill-rule:nonzero;stroke:none"
         id="path188" /><path
         d="m 4921.55,12654.3 h -2429.4 c -118.48,0 -214.52,-96.3 -214.52,-215.2 v -1420.2 c 0,-118.9 96.04,-215.3 214.52,-215.3 h 1699.89 c 109.28,-153 307.42,-427 324.91,-427 16.37,0 -15.15,258.8 -37.38,427 h 441.98 c 118.47,0 214.52,96.4 214.52,215.3 v 1420.2 c 0,118.9 -96.05,215.2 -214.52,215.2"
         style="fill:#c0ecff;fill-opacity:1;fill-rule:nonzero;stroke:none"
         id="path190" /><path
         d="m 6354.81,14352.6 h 3067.06 c 162.01,0 293.34,-131.8 293.34,-294.4 v -1942.1 c 0,-162.6 -131.33,-294.3 -293.34,-294.3 H 7352.42 c -149.44,-209.3 -420.4,-584 -444.31,-584 -22.4,0 20.71,353.9 51.1,584 h -604.4 c -162.01,0 -293.34,131.7 -293.34,294.3 v 1942.1 c 0,162.6 131.33,294.4 293.34,294.4"
         style="fill:#f47458;fill-opacity:1;fill-rule:nonzero;stroke:none"
         id="path192" /><path
         d="M 9373.82,13354.2 H 7882.71 c -4.99,0 -9.04,-4.1 -9.04,-9.1 v -114.9 c 0,-5 4.05,-9 9.04,-9 h 726.94 37.23 726.94 c 4.99,0 9.04,4 9.04,9 v 114.9 c 0,5 -4.05,9.1 -9.04,9.1"
         style="fill:#ffffff;fill-opacity:1;fill-rule:nonzero;stroke:none"
         id="path194" /><path
         d="m 6407.7,13221.2 h 1244.12 c 4.73,0 8.57,3.8 8.57,8.5 v 115.9 c 0,4.8 -3.84,8.6 -8.57,8.6 H 6407.7 c -4.74,0 -8.58,-3.8 -8.58,-8.6 v -115.9 c 0,-4.7 3.84,-8.5 8.58,-8.5"
         style="fill:#ffffff;fill-opacity:1;fill-rule:nonzero;stroke:none"
         id="path196" /><path
         d="m 6402.39,13655.6 h 1658.2 c 4.73,0 8.57,3.9 8.57,8.6 v 115.9 c 0,4.7 -3.84,8.5 -8.58,8.5 H 6402.39 c -4.73,0 -8.57,-3.8 -8.57,-8.5 v -115.9 c 0,-4.7 3.84,-8.6 8.57,-8.6"
         style="fill:#ffffff;fill-opacity:1;fill-rule:nonzero;stroke:none"
         id="path198" /><path
         d="m 8361.25,13655.6 h 1013.04 c 4.73,0 8.57,3.9 8.57,8.6 v 115.9 c 0,4.7 -3.84,8.5 -8.57,8.5 H 8361.25 c -4.73,0 -8.56,-3.8 -8.56,-8.5 v -115.9 c 0,-4.7 3.83,-8.6 8.56,-8.6"
         style="fill:#ffffff;fill-opacity:1;fill-rule:nonzero;stroke:none"
         id="path200" /><path
         d="m 6393.82,12370.2 h 2989.04 v 133.1 H 6393.82 v -133.1"
         style="fill:#ffffff;fill-opacity:1;fill-rule:nonzero;stroke:none"
         id="path202" /><path
         d="m 7961.35,12790.7 h 1421.51 v 133 H 7961.35 v -133"
         style="fill:#ffffff;fill-opacity:1;fill-rule:nonzero;stroke:none"
         id="path204" /><path
         d="m 6399.12,12790.7 h 1421.51 v 133 H 6399.12 v -133"
         style="fill:#ffffff;fill-opacity:1;fill-rule:nonzero;stroke:none"
         id="path206" /><path
         d="m 3540.88,11466.7 c 0,-62.3 81.62,-112.9 182.31,-112.9 100.7,0 182.32,50.6 182.32,112.9 0,62.4 -81.62,112.9 -182.32,112.9 -100.69,0 -182.31,-50.5 -182.31,-112.9"
         style="fill:#adaeb5;fill-opacity:1;fill-rule:nonzero;stroke:none"
         id="path208" /><path
         d="m 3723.2,13865.8 c 453.96,0 821.98,-368 821.98,-822 0,-248 -109.88,-470.4 -283.6,-621.1 -0.61,-0.6 -128.4,-138.8 -149.48,-283.4 l -3.82,-88.6 c -1.26,-29 -12.65,-56.7 -32.19,-78.2 -1.73,-1.9 -3.54,-3.7 -5.37,-5.5 h -695.05 c -1.83,1.8 -3.63,3.6 -5.36,5.5 -19.55,21.5 -30.94,49.2 -32.2,78.2 l -3.82,88.6 c -21.07,144.6 -148.88,282.8 -149.48,283.4 -173.72,150.7 -283.6,373.1 -283.6,621.1 0,454 368.02,822 821.99,822"
         style="fill:#f7cc7f;fill-opacity:1;fill-rule:nonzero;stroke:none"
         id="path210" /><path
         d="m 3466.41,11454.1 h 513.57 c 51.07,0 92.48,41.4 92.48,92.5 v 420.4 h -698.53 v -420.4 c 0,-51.1 41.41,-92.5 92.48,-92.5"
         style="fill:#544c60;fill-opacity:1;fill-rule:nonzero;stroke:none"
         id="path212" /><path
         d="m 4545.18,13045.4 c 0,0.1 0,0.3 0,0.4 0,-0.1 0,-0.3 0,-0.4 m -0.01,1.5 c 0,0.2 0,0.4 0,0.5 0,-0.1 0,-0.3 0,-0.5 m -0.01,1.6 c 0,0.2 0,0.3 0,0.5 0,-0.2 0,-0.3 0,-0.5 m -0.01,2 c 0,0.1 0,0.2 0,0.2 0,0 0,-0.1 0,-0.2 m -0.01,1.6 c 0,0.1 -0.01,0.3 -0.01,0.4 0,-0.1 0.01,-0.3 0.01,-0.4 m -0.02,1.5 c 0,0.2 0,0.3 0,0.5 0,-0.2 0,-0.3 0,-0.5 m -0.02,1.7 c 0,0.1 0,0.3 -0.01,0.3 0.01,-0.1 0.01,-0.2 0.01,-0.3 m -0.03,1.9 c 0,0.1 0,0.2 0,0.2 0,0 0,-0.1 0,-0.2 m -0.02,1.5 c -0.01,0.2 -0.01,0.3 -0.01,0.5 0,-0.2 0,-0.3 0.01,-0.5 m -0.03,1.6 c -0.01,0.1 -0.01,0.3 -0.01,0.5 0,-0.2 0,-0.3 0.01,-0.5 m -0.04,1.8 c 0,0 0,0.1 -0.01,0.2 0.01,-0.1 0.01,-0.1 0.01,-0.2 m -0.04,1.8 c 0,0 -0.01,0.1 -0.01,0.2 0,-0.1 0.01,-0.2 0.01,-0.2 m -0.04,1.5 c 0,0.2 -0.01,0.3 -0.01,0.4 0,-0.1 0.01,-0.2 0.01,-0.4 m -0.04,1.6 c -0.01,0.1 -0.01,0.3 -0.01,0.4 0,-0.1 0,-0.3 0.01,-0.4 m -0.06,1.8 c 0,0.1 0,0.1 0,0.1 0,0 0,0 0,-0.1 m -0.05,1.7 c 0,0.1 0,0.2 -0.01,0.3 0.01,-0.1 0.01,-0.2 0.01,-0.3 m -0.05,1.6 c 0,0.1 -0.01,0.2 -0.01,0.3 0,-0.1 0.01,-0.2 0.01,-0.3 m -0.06,1.7 c 0,0 0,0.1 -0.01,0.2 0.01,-0.1 0.01,-0.2 0.01,-0.2 m -0.13,3.4 c 0,0 0,0.1 0,0.2 0,-0.1 0,-0.2 0,-0.2 m -0.06,1.6 c -0.01,0.1 -0.01,0.1 -0.01,0.2 0,-0.1 0,-0.1 0.01,-0.2 m -0.23,5.1 v 0 0"
         style="fill:#f9e7cb;fill-opacity:1;fill-rule:nonzero;stroke:none"
         id="path214" /><path
         d="m 4070.72,11967 h -695.05 c -1.83,1.8 -3.63,3.6 -5.36,5.5 -19.55,21.5 -30.94,49.2 -32.2,78.2 l -3.82,88.6 c -21.07,144.6 -148.88,282.8 -149.48,283.4 v 0 c -43.95,38.1 -83.8,80.9 -118.82,127.4 129.53,-85.1 284.54,-134.7 451.15,-134.7 454.22,0 822.44,368.2 822.44,822.4 0,184.4 -60.7,354.7 -163.22,491.9 211.81,-140.3 354.91,-376 367.86,-645.8 v 0 c 0.08,-1.7 0.15,-3.3 0.22,-4.9 0,-0.1 0,-0.1 0.01,-0.2 0.02,-0.5 0.04,-0.9 0.06,-1.4 0,-0.1 0,-0.2 0,-0.2 0.05,-1.1 0.09,-2.1 0.12,-3.2 0.01,-0.1 0.01,-0.2 0.01,-0.2 0.02,-0.5 0.03,-0.9 0.05,-1.4 0,-0.1 0.01,-0.2 0.01,-0.3 0.02,-0.5 0.03,-0.9 0.04,-1.3 0.01,-0.1 0.01,-0.2 0.01,-0.3 0.02,-0.5 0.04,-1 0.05,-1.6 0,0 0,0 0,-0.1 0.02,-0.4 0.03,-0.9 0.05,-1.4 0,-0.1 0,-0.3 0.01,-0.4 0.01,-0.4 0.02,-0.8 0.03,-1.2 0,-0.1 0.01,-0.2 0.01,-0.4 0.01,-0.4 0.02,-0.9 0.03,-1.3 0,-0.1 0.01,-0.2 0.01,-0.2 0.01,-0.6 0.02,-1.1 0.03,-1.6 0.01,-0.1 0.01,-0.2 0.01,-0.2 0.01,-0.4 0.02,-0.9 0.03,-1.3 0,-0.2 0,-0.4 0.01,-0.5 0,-0.4 0.01,-0.8 0.02,-1.1 0,-0.2 0,-0.3 0.01,-0.5 0,-0.4 0.01,-0.8 0.02,-1.3 0,0 0,-0.1 0,-0.2 0.01,-0.5 0.02,-1 0.02,-1.6 0.01,0 0.01,-0.2 0.01,-0.3 0,-0.4 0.01,-0.8 0.02,-1.2 0,-0.2 0,-0.3 0,-0.5 0,-0.4 0.01,-0.7 0.01,-1.1 0,-0.1 0.01,-0.3 0.01,-0.4 0,-0.5 0.01,-0.9 0.01,-1.4 0,0 0,-0.1 0,-0.2 0.01,-0.5 0.01,-1 0.01,-1.5 0,-0.2 0,-0.3 0,-0.5 0.01,-0.3 0.01,-0.7 0.01,-1.1 0,-0.1 0,-0.3 0,-0.5 0,-0.4 0,-0.7 0.01,-1.1 0,-0.1 0,-0.3 0,-0.4 0,-0.5 0,-1.1 0,-1.6 0,-248 -109.88,-470.4 -283.6,-621.1 -0.61,-0.6 -128.4,-138.8 -149.48,-283.4 l -3.82,-88.6 c -1.26,-29 -12.65,-56.7 -32.19,-78.2 -1.73,-1.9 -3.54,-3.7 -5.37,-5.5"
         style="fill:#f3c472;fill-opacity:1;fill-rule:nonzero;stroke:none"
         id="path216" /><path
         d="m 3728.98,12645.2 163.32,712.4 143.34,-414.4 42.04,14.6 -194.07,560.9 -166.64,-726.8 -170.69,416.6 -158.1,-266.9 38.28,-22.7 112.53,190 189.99,-463.7"
         style="fill:#ffffff;fill-opacity:1;fill-rule:nonzero;stroke:none"
         id="path218" /><path
         d="m 3934.84,11859.9 3.92,-0.4 c 20.64,-2.1 39.1,12.9 41.24,33.5 l 114.22,1103 c 2.14,20.6 -12.86,39.1 -33.5,41.2 l -3.92,0.4 c -20.64,2.2 -39.1,-12.8 -41.23,-33.5 l -114.23,-1103 c -2.14,-20.6 12.86,-39.1 33.5,-41.2"
         style="fill:#544c60;fill-opacity:1;fill-rule:nonzero;stroke:none"
         id="path220" /><path
         d="m 3509.15,11859.7 v 0 c -21.72,-2.3 -41.15,13.5 -43.4,35.3 l -113.82,1099 c -2.25,21.8 13.54,41.2 35.26,43.4 21.72,2.3 41.15,-13.5 43.4,-35.2 l 113.82,-1099.1 c 2.25,-21.7 -13.54,-41.2 -35.26,-43.4"
         style="fill:#544c60;fill-opacity:1;fill-rule:nonzero;stroke:none"
         id="path222" /><path
         d="m 3354.29,11889.7 h 737.37 c 5.65,0 10.23,4.6 10.23,10.2 v 56.9 c 0,5.6 -4.58,10.2 -10.23,10.2 h -737.37 c -5.65,0 -10.24,-4.6 -10.24,-10.2 v -56.9 c 0,-5.6 4.59,-10.2 10.24,-10.2"
         style="fill:#adaeb5;fill-opacity:1;fill-rule:nonzero;stroke:none"
         id="path224" /><path
         d="m 3354.29,11734.7 h 737.37 c 5.65,0 10.23,4.5 10.23,10.2 v 56.8 c 0,5.7 -4.58,10.3 -10.23,10.3 h -737.37 c -5.65,0 -10.24,-4.6 -10.24,-10.3 v -56.8 c 0,-5.7 4.59,-10.2 10.24,-10.2"
         style="fill:#adaeb5;fill-opacity:1;fill-rule:nonzero;stroke:none"
         id="path226" /><path
         d="m 3354.29,11561.2 h 737.37 c 5.65,0 10.23,4.6 10.23,10.2 v 56.9 c 0,5.6 -4.58,10.2 -10.23,10.2 h -737.37 c -5.65,0 -10.24,-4.6 -10.24,-10.2 v -56.9 c 0,-5.6 4.59,-10.2 10.24,-10.2"
         style="fill:#adaeb5;fill-opacity:1;fill-rule:nonzero;stroke:none"
         id="path228" /><path
         d="M 25086.9,1211 H 2609.7 v 92.3 H 25086.9 V 1211"
         style="fill:#f7cc7f;fill-opacity:1;fill-rule:nonzero;stroke:none"
         id="path230" /></g></g></svg>
